<?xml version="1.0" encoding="UTF-8" standalone="no"?>
<!-- Created with Inkscape (http://www.inkscape.org/) -->

<svg
   xmlns:dc="http://purl.org/dc/elements/1.1/"
   xmlns:cc="http://creativecommons.org/ns#"
   xmlns:rdf="http://www.w3.org/1999/02/22-rdf-syntax-ns#"
   xmlns:svg="http://www.w3.org/2000/svg"
   xmlns="http://www.w3.org/2000/svg"
   version="1.1"
   style="fill:#21A0B7;"
   width="64"
   height="64"
   id="svg3264">
  <defs
     id="defs3266" />
  <metadata
     id="metadata3269">
    <rdf:RDF>
      <cc:Work
         rdf:about="">
        <dc:format>image/svg+xml</dc:format>
        <dc:type
           rdf:resource="http://purl.org/dc/dcmitype/StillImage" />
        <dc:title></dc:title>
      </cc:Work>
    </rdf:RDF>
  </metadata>
  <g
     id="layer1">
    <g
       transform="matrix(0.66483836,0,0,0.66483836,-359.63367,-164.75891)"
       id="g135">
      <path
         d="m 596.659,323.966 c -2.437,0 -4.33,-0.678 -5.627,-2.013 -1.686,-1.736 -1.673,-3.882 -1.666,-4.121 l -0.142,-13.041 c -0.004,-0.34 0.129,-0.668 0.368,-0.91 0.239,-0.243 0.566,-0.379 0.906,-0.379 4.723,0 5.088,-4.044 5.113,-4.505 -10e-4,-1.913 -0.577,-3.348 -1.76,-4.322 -2.044,-1.683 -5.393,-1.607 -7.072,-1.441 v 25.11 c 0.013,0.367 -0.007,2.056 -1.388,3.53 -1.301,1.388 -3.337,2.092 -6.053,2.092 h -10.206 c -1.883,0 -3.306,-0.559 -4.232,-1.66 -1.182,-1.407 -1.065,-3.151 -1,-3.664 v -29.567 c 0,-1.937 0.598,-3.452 1.777,-4.505 1.752,-1.565 4.174,-1.462 4.671,-1.422 h 3.184 v -3.909 c -0.001,-0.268 0.013,-6.804 4.561,-11.378 2.803,-2.82 6.672,-4.25 11.5,-4.25 4.534,0 8.186,1.377 10.856,4.092 4.602,4.683 4.537,11.613 4.533,11.906 v 3.307 h 3.576 c 1.968,0 3.479,0.574 4.488,1.705 1.291,1.448 1.242,3.246 1.206,3.698 v 30.182 c 0,0.704 -0.57,1.274 -1.274,1.274 -0.704,0 -1.274,-0.57 -1.274,-1.274 v -30.24 c 0,-0.049 0.003,-0.097 0.008,-0.145 0,0 0.091,-1.077 -0.58,-1.813 -0.507,-0.556 -1.373,-0.838 -2.573,-0.838 h -4.85 c -0.704,0 -1.274,-0.57 -1.274,-1.274 v -4.603 c 0.001,-0.081 0.04,-6.204 -3.815,-10.11 -2.171,-2.201 -5.207,-3.317 -9.025,-3.317 -4.124,0 -7.385,1.177 -9.692,3.497 -3.809,3.831 -3.82,9.517 -3.819,9.574 v 5.191 c 0,0.704 -0.571,1.274 -1.274,1.274 h -4.515 c -0.048,0 -0.096,-0.003 -0.144,-0.008 -0.01,-0.004 -1.727,-0.164 -2.784,0.792 -0.607,0.548 -0.915,1.421 -0.915,2.594 v 29.658 c 0,0.074 -0.007,0.147 -0.019,0.219 0,0 -0.153,1.045 0.431,1.726 0.421,0.49 1.185,0.739 2.271,0.739 h 10.206 c 1.929,0 3.369,-0.434 4.164,-1.254 0.752,-0.778 0.732,-1.689 0.731,-1.727 l -0.002,-26.313 c 0,-0.608 0.43,-1.132 1.026,-1.25 0.262,-0.051 6.471,-1.239 10.206,1.828 1.789,1.468 2.696,3.609 2.696,6.36 -0.101,2.264 -1.587,6.294 -6.374,6.909 l 0.129,11.884 c -10e-4,0.052 -10e-4,1.366 0.969,2.345 0.8,0.807 2.07,1.216 3.776,1.216 h 33.243 c 4.616,-7.388 7.293,-16.112 7.293,-25.465 0,-26.583 -21.549,-48.132 -48.132,-48.132 -26.583,0 -48.132,21.549 -48.132,48.132 0,26.583 21.549,48.132 48.132,48.132 16.129,0 30.394,-7.941 39.128,-20.118 h -31.535 z"
         id="path137" />
    </g>
  </g>
</svg>
